<svg width="168" height="171" viewBox="0 0 168 171" fill="none" xmlns="http://www.w3.org/2000/svg">
<path d="M83.5 64C101.173 64 115.5 49.6731 115.5 32C115.5 14.3269 101.173 0 83.5 0C65.8269 0 51.5 14.3269 51.5 32C51.5 49.6731 65.8269 64 83.5 64Z" fill="#FFF"/>
<path d="M15.5 39.5L45.6687 51.6648C50.5598 65.4546 65.6467 75.5 83.5 75.5C101.111 75.5 116.03 65.7254 121.127 52.224L121.5 52L152.5 39.5L168 84.5L121.5 101L153 143L115 171L84 126.5L53 171L15 143L46.5 101L0 84.5L15.5 39.5Z" fill="#FFF"/>
</svg>
