<svg width="128" height="128" viewBox="24 24 80 80" fill="none" xmlns="http://www.w3.org/2000/svg">
<path d="M77.1645 56.7411L77.1556 53.1016L100.127 43.6641L77.0842 34.3693L77.0753 30.7477L105.069 42.1031L105.086 45.127L77.1645 56.7411Z" fill="white"/>
<path d="M56.183 58.9624H59.3142L72.0084 32.2555H68.8237L56.183 58.9624Z" fill="white"/>
<path d="M51.0625 56.6786V53.0392L28.0559 43.6819L51.0625 34.3069V30.6764L23.0959 42.1388V45.1627L51.0625 56.6786Z" fill="white"/>
<path d="M103.213 50.4256H100.332V53.7533H103.213V50.4256Z" fill="white"/>
<path d="M101.126 56.3931H102.535L103.213 69.9874H100.198L101.126 56.3931Z" fill="white"/>
<path fill-rule="evenodd" clip-rule="evenodd" d="M37.9894 49.2232H40.7216V60.5387L63.8038 68.0405L89.3122 60.5387V49.2232H92.039V88.1854L77.4706 100.998H50.8802L37.9894 88.1854V49.2232ZM40.7217 86.9397V63.4072L63.8038 70.9035L89.3122 63.4072V86.9397L76.0498 98.6049H52.3447L40.7217 86.9397Z" fill="white"/>
<path fill-rule="evenodd" clip-rule="evenodd" d="M51.8184 82.9083C55.0264 82.9083 57.627 80.3077 57.627 77.0997C57.627 73.8917 55.0264 71.2911 51.8184 71.2911C48.6104 71.2911 46.0098 73.8917 46.0098 77.0997C46.0098 80.3077 48.6104 82.9083 51.8184 82.9083ZM51.7995 80.4618C53.6667 80.4618 55.1804 78.9481 55.1804 77.0808C55.1804 75.2136 53.6667 73.6999 51.7995 73.6999C49.9322 73.6999 48.4186 75.2136 48.4186 77.0808C48.4186 78.9481 49.9322 80.4618 51.7995 80.4618Z" fill="white"/>
<path fill-rule="evenodd" clip-rule="evenodd" d="M78.2987 82.9083C81.5067 82.9083 84.1073 80.3077 84.1073 77.0997C84.1073 73.8917 81.5067 71.2911 78.2987 71.2911C75.0907 71.2911 72.4901 73.8917 72.4901 77.0997C72.4901 80.3077 75.0907 82.9083 78.2987 82.9083ZM78.2798 80.4618C80.1471 80.4618 81.6607 78.9481 81.6607 77.0808C81.6607 75.2136 80.1471 73.6999 78.2798 73.6999C76.4126 73.6999 74.8989 75.2136 74.8989 77.0808C74.8989 78.9481 76.4126 80.4618 78.2798 80.4618Z" fill="white"/>
<path d="M74.8094 88.6665C74.8094 89.3445 74.5061 89.8887 74.1225 89.8887H55.9153C55.5317 89.8887 55.2284 89.3445 55.2284 88.6665C55.2284 87.9885 55.5317 87.4443 55.9153 87.4443H74.1225C74.5061 87.4443 74.8094 87.9885 74.8094 88.6665Z" fill="white"/>
<circle cx="76.9918" cy="88.6738" r="1.53114" fill="white"/>
<circle cx="52.9796" cy="88.6738" r="1.53114" fill="white"/>
</svg>
